<svg width="60" height="19" viewBox="0 0 60 19" fill="none" xmlns="http://www.w3.org/2000/svg">
<g clip-path="url(#clip0_148_50018)">
<path d="M40.167 0H26.0951V4.85536C24.8236 1.19243 21.2792 0 14.072 0H0V18.4793H14.4145C21.523 18.4793 24.8763 17.3231 26.0951 13.7755V18.4793H40.5096C49.9337 18.4793 52.76 16.4469 52.76 9.50319V8.97615C52.76 2.0324 49.5912 0 40.167 0ZM18.5847 9.31872C18.5847 12.4612 17.8996 13.2781 12.2504 13.2781H7.92207V5.22758H12.2504C17.8996 5.22758 18.5847 6.01814 18.5847 9.21332V9.31872ZM44.6798 9.31872C44.6798 12.4612 43.9947 13.2781 38.3454 13.2781H34.0171V5.22758H38.3454C43.9947 5.22758 44.6798 6.01814 44.6798 9.21332V9.31872Z" fill="white"/>
<path d="M56.8705 0.072464H55.9581C53.7181 0.072464 52.8848 0.863024 52.8848 2.38156V3.23141C52.8848 4.74994 53.7214 5.5405 55.9581 5.5405H56.8705C59.1104 5.5405 59.9438 4.74994 59.9438 3.23141V2.38156C59.9438 0.863024 59.1071 0.072464 56.8705 0.072464ZM59.6473 3.04036C59.6473 4.50619 59.094 5.27369 56.7387 5.27369H56.0865C53.7313 5.27369 53.1878 4.50619 53.1878 3.04036V2.56932C53.1878 1.10349 53.7346 0.335984 56.0865 0.335984H56.7387C59.094 0.335984 59.6473 1.10349 59.6473 2.56932V3.04036Z" fill="white"/>
<path d="M58.5737 2.46722V2.41122C58.5737 1.62725 58.1718 1.39667 57.0782 1.39667H54.499V4.23609H55.7145V3.48177H56.2613L57.0683 4.23609H58.5803L57.7206 3.43236C58.3365 3.32036 58.5737 3.01402 58.5737 2.46722ZM57.3582 2.45404C57.3582 2.66815 57.2825 2.73733 56.9069 2.73733H55.7145V2.13782H56.9069C57.2792 2.13782 57.3582 2.20699 57.3582 2.4211V2.45404Z" fill="white"/>
</g>
<defs>
<clipPath id="clip0_148_50018">
<rect width="59.9442" height="18.4793" fill="white"/>
</clipPath>
</defs>
</svg>
