<svg width="249" height="19" viewBox="0 0 249 19" fill="none" xmlns="http://www.w3.org/2000/svg">
<g clip-path="url(#clip0_148_50018)">
<path d="M14.0647 0.261871H0V18.7382H14.4109C23.8332 18.7382 26.6559 16.7055 26.6559 9.76409V9.23594C26.6559 2.29457 23.487 0.261871 14.0647 0.261871ZM18.5784 9.58212C18.5784 12.7244 17.8904 13.541 12.245 13.541H7.91778V5.49009H12.245C17.8949 5.49009 18.5784 6.28009 18.5784 9.4756V9.58212Z" fill="white"/>
<path d="M72.7911 1.52588e-05H70.0483C60.6259 1.52588e-05 57.0088 2.03272 57.0088 8.97408V10.0304C57.0088 16.9717 60.6259 19.0045 70.0483 19.0045H72.7911C82.2134 19.0045 85.8261 16.9717 85.8261 10.0304V8.97408C85.8261 2.03272 82.209 1.52588e-05 72.7911 1.52588e-05ZM77.753 9.81735C77.753 12.7199 77.0917 13.7496 71.6815 13.7762H71.1534C65.7432 13.7762 65.0819 12.7199 65.0819 9.81735V9.20931C65.0819 6.28009 65.7432 5.22379 71.1534 5.22379H71.6815C77.0917 5.22379 77.753 6.28009 77.753 9.20931V9.81735Z" fill="white"/>
<path d="M104.835 0.261871H88.0498V18.7382H95.9676V13.8295H104.835C112.012 13.8295 114.573 11.8234 114.573 7.22987V6.8615C114.573 1.76643 111.958 0.261871 104.835 0.261871ZM106.655 7.15442C106.655 8.55246 106.153 9.00072 103.726 9.00072H95.9676V5.09509H103.726C106.153 5.09509 106.655 5.54335 106.655 6.94138V7.15442Z" fill="white"/>
<path d="M137.194 0.261871H123.129V18.7382H137.54C146.962 18.7382 149.785 16.7055 149.785 9.76409V9.23594C149.785 2.29457 146.616 0.261871 137.198 0.261871H137.194ZM141.707 9.58212C141.707 12.7244 141.019 13.541 135.374 13.541H131.047V5.49009H135.374C141.024 5.49009 141.707 6.28009 141.707 9.4756V9.58212Z" fill="white"/>
<path d="M152.005 18.7382V0.261871H174.724V5.09509H159.923V7.07453H174.724V11.9033H159.923V13.9094H174.724V18.7382H152.005Z" fill="white"/>
<path d="M198.664 0.261871H186.552L175.993 18.7382H184.648L186.414 15.4938H198.344L200.11 18.7382H209.218L198.664 0.261871ZM189.086 10.6606L192.255 4.88205H192.517L195.686 10.6606H189.086Z" fill="white"/>
<path d="M224.662 0.261871H210.598V18.7382H225.009C234.431 18.7382 237.254 16.7055 237.254 9.76409V9.23594C237.254 2.29457 234.085 0.261871 224.667 0.261871H224.662ZM229.176 9.58212C229.176 12.7244 228.488 13.541 222.843 13.541H218.515V5.49009H222.843C228.488 5.49009 229.176 6.28009 229.176 9.4756V9.58212Z" fill="white"/>
<path d="M244.293 0.528168H242.957C239.677 0.528168 238.452 1.68654 238.452 3.91009V5.15279C238.452 7.37633 239.677 8.53471 242.957 8.53471H244.293C247.573 8.53471 248.798 7.38077 248.798 5.15279V3.91009C248.798 1.68654 247.573 0.528168 244.293 0.528168ZM248.363 4.87762C248.363 7.02128 247.55 8.14414 244.106 8.14414H243.152C239.704 8.14414 238.905 7.02128 238.905 4.87762V4.1897C238.905 2.0416 239.704 0.918731 243.152 0.918731H244.106C247.555 0.918731 248.363 2.0416 248.363 4.1897V4.87762Z" fill="white"/>
<path d="M245.535 5.44571C246.441 5.2815 246.787 4.83324 246.787 4.03436V3.95003C246.787 2.80497 246.201 2.46767 244.594 2.46767H240.817V6.62184H242.597V5.51672H243.396L244.577 6.62184H246.791L245.531 5.44571H245.535ZM245.007 4.0166C245.007 4.33172 244.896 4.4338 244.35 4.4338H242.606V3.55503H244.35C244.896 3.55503 245.007 3.65711 245.007 3.97222V4.02104V4.0166Z" fill="white"/>
<path d="M49.7478 13.5099C53.7644 12.7821 55.3089 10.7849 55.3089 7.23431V6.86594C55.3089 1.77087 52.6948 0.266312 45.5715 0.266312H28.7861V18.7382H36.7039V13.8295H40.2589L45.5049 18.7382H55.3488L49.7478 13.5099ZM47.3911 7.15442C47.3911 8.55246 46.8896 9.00072 44.4619 9.00072H36.7039V5.09509H44.4619C46.8896 5.09509 47.3911 5.54335 47.3911 6.94139V7.15442Z" fill="white"/>
</g>
<defs>
<clipPath id="clip0_148_50018">
<rect width="248.793" height="19" fill="white"/>
</clipPath>
</defs>
</svg>
